<svg width="137" height="30" viewBox="0 0 137 30" fill="none" xmlns="http://www.w3.org/2000/svg">
<path d="M121.096 23.0732C119.137 23.0732 117.45 22.699 116.032 21.9506C114.623 21.1943 113.536 20.1115 112.772 18.7022C112.016 17.285 111.637 15.5892 111.637 13.6147C111.637 11.7197 112.02 10.0637 112.784 8.64651C113.548 7.22931 114.627 6.1266 116.02 5.33839C117.414 4.55017 119.058 4.15607 120.953 4.15607C122.338 4.15607 123.592 4.37104 124.715 4.80097C125.837 5.23091 126.797 5.85591 127.593 6.67597C128.389 7.48807 129.002 8.47533 129.432 9.63775C129.862 10.8002 130.077 12.1099 130.077 13.5669V15.0955H113.692V11.465H124.01C124.002 10.9395 123.867 10.4777 123.604 10.0796C123.349 9.67357 123.003 9.35909 122.565 9.13616C122.135 8.90526 121.645 8.78982 121.096 8.78982C120.563 8.78982 120.073 8.90526 119.627 9.13616C119.181 9.35909 118.823 9.66959 118.552 10.0677C118.29 10.4658 118.15 10.9315 118.134 11.465V15.3822C118.134 15.9713 118.258 16.4968 118.504 16.9586C118.751 17.4204 119.106 17.7826 119.567 18.0454C120.029 18.3081 120.586 18.4395 121.239 18.4395C121.693 18.4395 122.107 18.3758 122.481 18.2484C122.864 18.121 123.19 17.9379 123.461 17.699C123.731 17.4522 123.93 17.1576 124.058 16.8153H130.077C129.87 18.0892 129.38 19.1959 128.608 20.1353C127.836 21.0669 126.813 21.7914 125.539 22.3089C124.273 22.8185 122.792 23.0732 121.096 23.0732Z" fill="#363636"/>
<path d="M112.504 4.3949V9.17196H100.418V4.3949H112.504ZM102.758 0H109.351V16.8391C109.351 17.0939 109.395 17.3089 109.482 17.484C109.57 17.6512 109.705 17.7786 109.888 17.8662C110.071 17.9458 110.306 17.9856 110.593 17.9856C110.792 17.9856 111.023 17.9618 111.286 17.914C111.556 17.8662 111.755 17.8264 111.883 17.7946L112.838 22.4283C112.543 22.5159 112.121 22.6234 111.572 22.7508C111.031 22.8781 110.386 22.9617 109.637 23.0016C108.125 23.0812 106.855 22.9259 105.828 22.5358C104.801 22.1377 104.028 21.5127 103.511 20.6608C102.993 19.8089 102.743 18.742 102.758 17.4602V0Z" fill="#363636"/>
<path d="M89.4965 23.0255C88.3261 23.0255 87.2911 22.8344 86.3914 22.4522C85.4997 22.0621 84.7991 21.4729 84.2895 20.6847C83.78 19.8965 83.5252 18.8933 83.5252 17.6752C83.5252 16.672 83.6964 15.8161 84.0387 15.1075C84.3811 14.3909 84.8588 13.8057 85.4718 13.3519C86.0849 12.8981 86.7975 12.5518 87.6096 12.3129C88.4296 12.074 89.3134 11.9188 90.2608 11.8471C91.2879 11.7675 92.1119 11.672 92.733 11.5605C93.3619 11.4411 93.8158 11.2779 94.0944 11.0709C94.3731 10.8559 94.5124 10.5733 94.5124 10.2229V10.1752C94.5124 9.69746 94.3293 9.33122 93.9631 9.07644C93.5968 8.82166 93.1271 8.69428 92.5538 8.69428C91.9248 8.69428 91.4113 8.83361 91.0132 9.11227C90.6231 9.38297 90.3882 9.80096 90.3086 10.3662H84.2417C84.3214 9.2516 84.6757 8.22453 85.3046 7.28504C85.9416 6.33759 86.8691 5.58122 88.0873 5.01594C89.3054 4.44269 90.8261 4.15607 92.6494 4.15607C93.9631 4.15607 95.1414 4.31132 96.1844 4.62183C97.2274 4.92438 98.1151 5.35033 98.8476 5.89969C99.5801 6.4411 100.137 7.07804 100.52 7.81052C100.91 8.53504 101.105 9.32326 101.105 10.1752V22.7388H94.9424V20.1592H94.799C94.4328 20.8439 93.9869 21.3973 93.4615 21.8193C92.944 22.2412 92.3508 22.5478 91.682 22.7388C91.0212 22.9299 90.2927 23.0255 89.4965 23.0255ZM91.6462 18.8694C92.1478 18.8694 92.6175 18.7659 93.0554 18.5589C93.5013 18.3519 93.8635 18.0533 94.1422 17.6632C94.4209 17.2731 94.5602 16.7994 94.5602 16.242V14.7134C94.385 14.785 94.1979 14.8527 93.9989 14.9164C93.8078 14.9801 93.6008 15.0398 93.3779 15.0955C93.1629 15.1513 92.932 15.203 92.6852 15.2508C92.4463 15.2986 92.1955 15.3424 91.9328 15.3822C91.4233 15.4618 91.0053 15.5932 90.6788 15.7763C90.3604 15.9514 90.1215 16.1704 89.9623 16.4331C89.811 16.6879 89.7354 16.9745 89.7354 17.293C89.7354 17.8025 89.9145 18.1927 90.2728 18.4634C90.6311 18.7341 91.0889 18.8694 91.6462 18.8694Z" fill="#363636"/>
<path d="M74.0729 30C72.2337 30 70.6573 29.7372 69.3436 29.2118C68.0379 28.6942 67.0228 27.9777 66.2982 27.0621C65.5817 26.1544 65.1796 25.1114 65.092 23.9331H71.4455C71.5092 24.3232 71.6684 24.6377 71.9232 24.8766C72.178 25.1154 72.5044 25.2866 72.9025 25.3901C73.3086 25.5016 73.7624 25.5573 74.264 25.5573C75.1159 25.5573 75.8205 25.3503 76.3778 24.9363C76.9431 24.5223 77.2258 23.7739 77.2258 22.6911V19.586H77.0347C76.7958 20.207 76.4296 20.7365 75.936 21.1744C75.4423 21.6043 74.8492 21.9347 74.1565 22.1656C73.4638 22.3885 72.7035 22.5 71.8755 22.5C70.5697 22.5 69.3675 22.1974 68.2688 21.5923C67.178 20.9873 66.3022 20.0279 65.6414 18.7142C64.9885 17.4005 64.6621 15.6847 64.6621 13.5669C64.6621 11.3535 65.0044 9.55415 65.6892 8.1688C66.3818 6.78345 67.2736 5.76833 68.3643 5.12342C69.463 4.47852 70.6175 4.15607 71.8277 4.15607C72.7353 4.15607 73.5315 4.3153 74.2162 4.63377C74.9009 4.94428 75.4742 5.36227 75.936 5.88775C76.3977 6.40527 76.7481 6.97453 76.9869 7.59555H77.1302V4.39492H83.7226V22.6911C83.7226 24.2436 83.3205 25.5613 82.5164 26.6441C81.7202 27.7349 80.5976 28.5669 79.1485 29.1401C77.6995 29.7134 76.0076 30 74.0729 30ZM74.3118 17.8185C74.9169 17.8185 75.4344 17.6513 75.8643 17.3169C76.3022 16.9745 76.6366 16.4888 76.8675 15.8599C77.1063 15.2229 77.2258 14.4586 77.2258 13.5669C77.2258 12.6592 77.1063 11.883 76.8675 11.2381C76.6366 10.5852 76.3022 10.0876 75.8643 9.74523C75.4344 9.39491 74.9169 9.21975 74.3118 9.21975C73.7067 9.21975 73.1891 9.39491 72.7592 9.74523C72.3372 10.0876 72.0108 10.5852 71.7799 11.2381C71.557 11.883 71.4455 12.6592 71.4455 13.5669C71.4455 14.4745 71.557 15.2468 71.7799 15.8838C72.0108 16.5127 72.3372 16.9944 72.7592 17.3288C73.1891 17.6552 73.7067 17.8185 74.3118 17.8185Z" fill="#363636"/>
<path d="M65.4328 4.3949V9.17196H53.3468V4.3949H65.4328ZM55.6875 0H62.2799V16.8391C62.2799 17.0939 62.3237 17.3089 62.4113 17.484C62.4988 17.6512 62.6342 17.7786 62.8173 17.8662C63.0004 17.9458 63.2353 17.9856 63.5219 17.9856C63.721 17.9856 63.9519 17.9618 64.2146 17.914C64.4853 17.8662 64.6844 17.8264 64.8117 17.7946L65.7671 22.4283C65.4726 22.5159 65.0506 22.6234 64.5012 22.7508C63.9598 22.8781 63.3149 22.9617 62.5665 23.0016C61.0538 23.0812 59.7839 22.9259 58.7568 22.5358C57.7297 22.1377 56.9574 21.5127 56.4399 20.6608C55.9224 19.8089 55.6716 18.742 55.6875 17.4602V0Z" fill="#363636"/>
<path d="M54.1801 10.3662H48.1133C48.0814 9.99204 47.9501 9.66959 47.7192 9.39889C47.4883 9.12819 47.1897 8.92119 46.8235 8.77788C46.4652 8.6266 46.0671 8.55096 45.6292 8.55096C45.0639 8.55096 44.5783 8.65447 44.1722 8.86147C43.7662 9.06848 43.5671 9.36307 43.5751 9.74523C43.5671 10.0159 43.6826 10.2667 43.9214 10.4976C44.1682 10.7285 44.6419 10.9076 45.3426 11.035L49.0687 11.7038C50.9477 12.0462 52.345 12.6234 53.2606 13.4355C54.1841 14.2397 54.6499 15.3185 54.6579 16.672C54.6499 17.9777 54.2598 19.1123 53.4875 20.0756C52.7231 21.031 51.6762 21.7715 50.3466 22.297C49.0249 22.8145 47.5161 23.0732 45.8203 23.0732C43.0177 23.0732 40.8243 22.5 39.2399 21.3535C37.6635 20.207 36.7837 18.6943 36.6006 16.8153H43.1451C43.2327 17.3965 43.5193 17.8463 44.005 18.1648C44.4986 18.4753 45.1196 18.6306 45.8681 18.6306C46.4732 18.6306 46.9708 18.5271 47.3609 18.3201C47.759 18.1131 47.962 17.8185 47.97 17.4363C47.962 17.086 47.7868 16.8073 47.4445 16.6003C47.1101 16.3933 46.5846 16.2261 45.8681 16.0987L42.6197 15.5255C40.7486 15.199 39.3474 14.578 38.4158 13.6624C37.4843 12.7468 37.0225 11.5685 37.0305 10.1274C37.0225 8.85351 37.3569 7.77469 38.0337 6.89093C38.7184 5.99922 39.6937 5.32247 40.9596 4.86068C42.2335 4.39094 43.7423 4.15607 45.4859 4.15607C48.1372 4.15607 50.2271 4.70543 51.7558 5.80415C53.2924 6.90288 54.1005 8.42358 54.1801 10.3662Z" fill="#363636"/>
<path d="M27.9216 23.0732C25.9311 23.0732 24.2273 22.6791 22.8101 21.8909C21.3929 21.0947 20.3062 19.988 19.5498 18.5709C18.7934 17.1457 18.4152 15.4936 18.4152 13.6147C18.4152 11.7357 18.7934 10.0876 19.5498 8.67039C20.3062 7.24523 21.3929 6.13855 22.8101 5.35033C24.2273 4.55416 25.9311 4.15607 27.9216 4.15607C29.912 4.15607 31.6159 4.55416 33.0331 5.35033C34.4502 6.13855 35.537 7.24523 36.2934 8.67039C37.0498 10.0876 37.4279 11.7357 37.4279 13.6147C37.4279 15.4936 37.0498 17.1457 36.2934 18.5709C35.537 19.988 34.4502 21.0947 33.0331 21.8909C31.6159 22.6791 29.912 23.0732 27.9216 23.0732ZM27.9694 18.2006C28.5267 18.2006 29.0084 18.0135 29.4144 17.6393C29.8205 17.2651 30.135 16.7317 30.3579 16.039C30.5808 15.3463 30.6923 14.5223 30.6923 13.5669C30.6923 12.6035 30.5808 11.7795 30.3579 11.0947C30.135 10.4021 29.8205 9.86864 29.4144 9.49443C29.0084 9.12023 28.5267 8.93313 27.9694 8.93313C27.3802 8.93313 26.8746 9.12023 26.4526 9.49443C26.0307 9.86864 25.7082 10.4021 25.4853 11.0947C25.2624 11.7795 25.1509 12.6035 25.1509 13.5669C25.1509 14.5223 25.2624 15.3463 25.4853 16.039C25.7082 16.7317 26.0307 17.2651 26.4526 17.6393C26.8746 18.0135 27.3802 18.2006 27.9694 18.2006Z" fill="#363636"/>
<path d="M0 29.6178V4.39492H6.54458V7.59555H6.68789C6.92674 6.97453 7.27706 6.40527 7.73884 5.88775C8.20062 5.36227 8.77387 4.94428 9.45858 4.63377C10.1433 4.3153 10.9395 4.15607 11.8471 4.15607C13.0573 4.15607 14.2078 4.47852 15.2985 5.12342C16.3973 5.76833 17.289 6.78345 17.9737 8.1688C18.6664 9.55415 19.0127 11.3535 19.0127 13.5669C19.0127 15.6847 18.6823 17.4403 18.0215 18.8336C17.3686 20.2269 16.4928 21.2659 15.3941 21.9506C14.3033 22.6353 13.1051 22.9777 11.7993 22.9777C10.9395 22.9777 10.1712 22.8384 9.49441 22.5597C8.82562 22.2731 8.25238 21.8869 7.77467 21.4013C7.30493 20.9076 6.94266 20.3503 6.68789 19.7293H6.59235V29.6178H0ZM6.44903 13.5669C6.44903 14.4586 6.56448 15.2309 6.79537 15.8838C7.03422 16.5287 7.36862 17.0303 7.79855 17.3885C8.23645 17.7388 8.75795 17.914 9.36304 17.914C9.96814 17.914 10.4817 17.7428 10.9036 17.4005C11.3336 17.0502 11.66 16.5525 11.8829 15.9076C12.1138 15.2548 12.2293 14.4745 12.2293 13.5669C12.2293 12.6592 12.1138 11.883 11.8829 11.2381C11.66 10.5852 11.3336 10.0876 10.9036 9.74523C10.4817 9.39491 9.96814 9.21975 9.36304 9.21975C8.75795 9.21975 8.23645 9.39491 7.79855 9.74523C7.36862 10.0876 7.03422 10.5852 6.79537 11.2381C6.56448 11.883 6.44903 12.6592 6.44903 13.5669Z" fill="#363636"/>
<path d="M136.455 19.9363C136.455 21.4841 135.2 22.7389 133.653 22.7389C132.105 22.7389 130.85 21.4841 130.85 19.9363C130.85 18.3885 132.105 17.1338 133.653 17.1338C135.2 17.1338 136.455 18.3885 136.455 19.9363Z" fill="#5528FF"/>
</svg>
