<svg width="138" height="32" viewBox="0 0 138 32" fill="none" xmlns="http://www.w3.org/2000/svg">
<path d="M129.988 4.72803C132.377 4.72803 134.276 5.36803 135.684 6.64803C137.092 7.90669 137.796 9.6347 137.796 11.832C137.796 12.4507 137.732 13.112 137.604 13.816C137.455 14.52 137.337 14.9894 137.252 15.224H125.86C125.839 15.352 125.828 15.5334 125.828 15.768C125.828 16.9627 126.34 17.56 127.364 17.56C128.153 17.56 128.772 17.208 129.22 16.504H136.74C136.271 17.784 135.535 18.936 134.532 19.96C133.529 20.9627 132.345 21.7627 130.98 22.36C129.636 22.936 128.217 23.224 126.724 23.224C124.335 23.224 122.436 22.5947 121.028 21.336C119.641 20.056 118.948 18.2854 118.948 16.024C118.948 15.3627 119.012 14.68 119.14 13.976C119.481 12.0987 120.164 10.4667 121.188 9.08003C122.212 7.67203 123.481 6.59469 124.996 5.84803C126.532 5.10136 128.196 4.72803 129.988 4.72803ZM130.66 12.312C130.681 12.2054 130.692 12.0454 130.692 11.832C130.692 11.32 130.532 10.936 130.212 10.68C129.892 10.424 129.487 10.296 128.996 10.296C127.716 10.296 126.852 10.968 126.404 12.312H130.66Z" fill="#5528FF"/>
<path d="M114.066 15.736C114.045 15.8213 114.034 15.928 114.034 16.056C114.034 16.6533 114.418 16.952 115.186 16.952H116.882L115.794 23H113.106C108.904 23 106.802 21.2186 106.802 17.656C106.802 17.016 106.866 16.3333 106.994 15.608L107.826 10.872H105.586L106.642 4.95198H108.882L109.65 0.599976H116.754L115.986 4.95198H118.93L117.874 10.872H114.93L114.066 15.736Z" fill="#5528FF"/>
<path d="M83.4525 13.976C83.7938 12.0774 84.4125 10.4347 85.3085 9.04803C86.2045 7.64003 87.2818 6.57336 88.5405 5.84803C89.7992 5.10136 91.1325 4.72803 92.5405 4.72803C93.7138 4.72803 94.6845 4.97336 95.4525 5.46403C96.2205 5.93336 96.7538 6.58403 97.0525 7.41603L97.5005 4.95203H104.573L101.373 23H94.3005L94.7485 20.536C94.1512 21.368 93.3832 22.0294 92.4445 22.52C91.5059 22.9894 90.4498 23.224 89.2765 23.224C87.4632 23.224 86.0019 22.616 84.8925 21.4C83.7832 20.184 83.2285 18.4987 83.2285 16.344C83.2285 15.5334 83.3032 14.744 83.4525 13.976ZM95.9005 13.976C95.9432 13.784 95.9645 13.528 95.9645 13.208C95.9645 12.4827 95.7725 11.928 95.3885 11.544C95.0045 11.1387 94.4819 10.936 93.8205 10.936C93.0525 10.936 92.3698 11.2027 91.7725 11.736C91.1965 12.2694 90.8232 13.016 90.6525 13.976C90.6098 14.168 90.5885 14.424 90.5885 14.744C90.5885 15.4694 90.7805 16.0347 91.1645 16.44C91.5485 16.824 92.0712 17.016 92.7325 17.016C93.5005 17.016 94.1725 16.7494 94.7485 16.216C95.3459 15.6827 95.7298 14.936 95.9005 13.976Z" fill="#5528FF"/>
<path d="M70.7905 4.72803C71.9638 4.72803 72.9345 4.97336 73.7025 5.46403C74.4705 5.93336 75.0038 6.58403 75.3025 7.41603L75.7505 4.95203H82.8225L79.6865 22.68C79.3878 24.3654 78.8012 25.9014 77.9265 27.288C77.0732 28.6747 75.8785 29.784 74.3425 30.616C72.8278 31.448 70.9932 31.864 68.8385 31.864C66.0865 31.864 63.9852 31.2454 62.5345 30.008C61.0838 28.792 60.3585 27.1174 60.3585 24.984C60.3585 24.6854 60.3692 24.4614 60.3905 24.312H67.3665C67.4092 25.2507 68.0918 25.72 69.4145 25.72C70.2465 25.72 70.9292 25.5067 71.4625 25.08C72.0172 24.6534 72.4012 23.8534 72.6145 22.68L72.9985 20.536C72.4012 21.368 71.6332 22.0294 70.6945 22.52C69.7558 22.9894 68.6998 23.224 67.5265 23.224C65.7132 23.224 64.2518 22.616 63.1425 21.4C62.0332 20.184 61.4785 18.4987 61.4785 16.344C61.4785 15.5334 61.5532 14.744 61.7025 13.976C62.0438 12.0774 62.6625 10.4347 63.5585 9.04803C64.4545 7.64003 65.5318 6.57336 66.7905 5.84803C68.0492 5.10136 69.3825 4.72803 70.7905 4.72803ZM74.1505 13.976C74.1932 13.784 74.2145 13.528 74.2145 13.208C74.2145 12.4827 74.0225 11.928 73.6385 11.544C73.2545 11.1387 72.7318 10.936 72.0705 10.936C71.3025 10.936 70.6198 11.2027 70.0225 11.736C69.4465 12.2694 69.0732 13.016 68.9025 13.976C68.8598 14.168 68.8385 14.424 68.8385 14.744C68.8385 15.4694 69.0305 16.0347 69.4145 16.44C69.7985 16.824 70.3212 17.016 70.9825 17.016C71.7505 17.016 72.4225 16.7494 72.9985 16.216C73.5958 15.6827 73.9798 14.936 74.1505 13.976Z" fill="#5528FF"/>
<path d="M49.1685 7.41603C49.7658 6.58403 50.5232 5.93336 51.4405 5.46403C52.3792 4.97336 53.4352 4.72803 54.6085 4.72803C56.4218 4.72803 57.8832 5.33603 58.9925 6.55203C60.1018 7.76803 60.6565 9.45336 60.6565 11.608C60.6565 12.4187 60.5818 13.208 60.4325 13.976C60.0912 15.8747 59.4725 17.528 58.5765 18.936C57.6805 20.3227 56.6032 21.3894 55.3445 22.136C54.0858 22.8614 52.7525 23.224 51.3445 23.224C50.1712 23.224 49.2005 22.9894 48.4325 22.52C47.6858 22.0294 47.1632 21.368 46.8645 20.536L44.9125 31.64H37.8085L42.5125 4.95203H49.6165L49.1685 7.41603ZM53.2325 13.976C53.2752 13.784 53.2965 13.528 53.2965 13.208C53.2965 12.4827 53.1045 11.928 52.7205 11.544C52.3365 11.1387 51.8138 10.936 51.1525 10.936C50.3845 10.936 49.7018 11.2027 49.1045 11.736C48.5285 12.2694 48.1552 13.016 47.9845 13.976C47.9418 14.168 47.9205 14.424 47.9205 14.744C47.9205 15.4694 48.1125 16.0347 48.4965 16.44C48.8805 16.824 49.4032 17.016 50.0645 17.016C50.8325 17.016 51.5045 16.7494 52.0805 16.216C52.6778 15.6827 53.0618 14.936 53.2325 13.976Z" fill="#5528FF"/>
<path d="M18.2025 13.976C18.5438 12.0774 19.1625 10.4347 20.0585 9.04803C20.9545 7.64003 22.0318 6.57336 23.2905 5.84803C24.5492 5.10136 25.8825 4.72803 27.2905 4.72803C28.4638 4.72803 29.4345 4.97336 30.2025 5.46403C30.9705 5.93336 31.5039 6.58403 31.8025 7.41603L32.2505 4.95203H39.3225L36.1225 23H29.0505L29.4985 20.536C28.9012 21.368 28.1332 22.0294 27.1945 22.52C26.2558 22.9894 25.1998 23.224 24.0265 23.224C22.2132 23.224 20.7518 22.616 19.6425 21.4C18.5332 20.184 17.9785 18.4987 17.9785 16.344C17.9785 15.5334 18.0532 14.744 18.2025 13.976ZM30.6505 13.976C30.6932 13.784 30.7145 13.528 30.7145 13.208C30.7145 12.4827 30.5225 11.928 30.1385 11.544C29.7545 11.1387 29.2318 10.936 28.5705 10.936C27.8025 10.936 27.1198 11.2027 26.5225 11.736C25.9465 12.2694 25.5732 13.016 25.4025 13.976C25.3598 14.168 25.3385 14.424 25.3385 14.744C25.3385 15.4694 25.5305 16.0347 25.9145 16.44C26.2985 16.824 26.8212 17.016 27.4825 17.016C28.2505 17.016 28.9225 16.7494 29.4985 16.216C30.0958 15.6827 30.4799 14.936 30.6505 13.976Z" fill="#5528FF"/>
<path d="M8.87201 17.112H16.392L15.336 23H0.0400085L1.03201 17.432L9.06401 10.84H2.28001L3.33601 4.95203H18.216L17.224 10.52L8.87201 17.112Z" fill="#5528FF"/>
</svg>
